<svg width="133" height="108" viewBox="0 0 133 108" fill="none" xmlns="http://www.w3.org/2000/svg">
<path d="M130.425 41.4641L72.1367 1.79687C68.6121 -0.606544 63.964 -0.606544 60.4321 1.79687L2.14398 41.4641C-1.83589 44.1743 0.087958 50.3691 4.91226 50.3691H17.0354V100.3C17.0354 104.523 20.4719 107.941 24.7161 107.941H54.0437C42.721 103.113 34.7759 91.8845 34.7759 79.5022V36.292C34.7759 33.3407 37.2578 30.9592 40.2611 31.1199C43.0808 31.266 45.1882 33.779 45.1882 36.5842V57.8935C45.1882 58.9089 46.2676 59.5517 47.1634 59.0769C47.1708 59.0769 47.1854 59.0696 47.1928 59.0623C47.6334 58.8285 47.9197 58.3829 47.9197 57.8789V22.1053C47.9197 19.154 50.4017 16.7725 53.4049 16.9332C56.2246 17.0793 58.332 19.5923 58.332 22.3975V53.9413C58.332 54.7449 59.0369 55.3805 59.8373 55.2782C59.8446 55.2782 59.852 55.2782 59.8667 55.2782C60.5496 55.1905 61.0636 54.628 61.0636 53.9413V18.0875C61.0636 15.1362 63.5455 12.7547 66.5487 12.9154C69.3684 13.0615 71.4758 15.5745 71.4758 18.3797V53.9413C71.4758 54.628 71.9898 55.1905 72.6727 55.2782C72.6801 55.2782 72.6874 55.2782 72.7021 55.2782C73.5025 55.3805 74.2074 54.7449 74.2074 53.9413V23.0623C74.2074 20.111 76.6893 17.7295 79.6926 17.8902C82.5122 18.0363 84.6197 20.5493 84.6197 23.3545V57.8715C84.6197 58.3683 84.906 58.8212 85.3466 59.055C85.354 59.055 85.3686 59.0623 85.376 59.0696C86.2792 59.5444 87.3512 58.9016 87.3512 57.8862V48.8496C87.3512 46.0444 89.466 43.5314 92.2783 43.3853C95.2816 43.2319 97.7635 45.6061 97.7635 48.5574V79.4876C97.7635 91.8699 89.8184 103.098 78.4957 107.927H107.823C112.067 107.927 115.504 104.508 115.504 100.286V50.3545H127.627C132.451 50.3545 134.375 44.1524 130.395 41.4495L130.425 41.4641Z" fill="#00D1FF"/>
<path d="M85.2587 67.2516C80.4858 62.5032 72.7464 62.5032 67.9808 67.2516L66.2919 68.9318L64.6031 67.2516C59.8302 62.5032 52.0907 62.5032 47.3252 67.2516C42.5523 72 42.5523 79.6997 47.3252 84.4407L66.2993 103.317L76.3444 93.3239L85.2734 84.4407C90.0463 79.6924 90.0463 71.9927 85.2734 67.2516H85.2587Z" fill="white"/>
</svg>
